<svg width="24" height="26" viewBox="0 0 24 26" fill="none" xmlns="http://www.w3.org/2000/svg">
<path d="M6.45549 18.1743L10.3636 13.9555C10.7736 14.035 11.1922 14.0614 11.609 14.0339C12.5149 14.0016 13.4056 13.7909 14.23 13.4139C15.0543 13.0368 15.7962 12.5009 16.4131 11.8367C17.03 11.1725 17.5098 10.3931 17.825 9.54311C18.1402 8.69318 18.2846 7.78941 18.25 6.88357C18.2136 5.87668 17.9545 4.89037 17.4914 3.99556C17.4241 3.86489 17.3271 3.75188 17.208 3.66572C17.089 3.57955 16.9513 3.52263 16.8062 3.49958C16.6632 3.48713 16.5193 3.50589 16.3844 3.55458C16.2495 3.60327 16.1267 3.68071 16.0247 3.78155L12.2729 7.85036L10.5928 6.29403L14.3453 2.2432C14.4452 2.13821 14.5176 2.01022 14.5563 1.87055C14.5949 1.73089 14.5985 1.58386 14.5668 1.44247C14.536 1.30064 14.472 1.16813 14.38 1.05583C14.2881 0.943534 14.1709 0.854641 14.0379 0.796457C12.9645 0.346021 11.7946 0.174106 10.637 0.296663C9.47934 0.419219 8.37144 0.832266 7.41613 1.49748C6.46081 2.16269 5.68907 3.0585 5.17252 4.10173C4.65598 5.14495 4.41137 6.30178 4.46144 7.46481C4.48296 7.88699 4.54119 8.30649 4.63544 8.71859L0.726633 12.9194C0.56731 13.0969 0.483324 13.3293 0.492435 13.5676C0.501546 13.8059 0.603039 14.0313 0.775444 14.196C0.86224 14.2771 0.964243 14.3402 1.07554 14.3816C1.18683 14.4231 1.30524 14.4421 1.42392 14.4375C1.5426 14.433 1.65921 14.405 1.76702 14.3552C1.87482 14.3054 1.97168 14.2347 2.05203 14.1472L6.28868 9.57369C6.39892 9.46453 6.47628 9.32658 6.51189 9.17559C6.54751 9.02459 6.53996 8.86661 6.49012 8.7197C6.3683 8.2875 6.291 7.84398 6.25944 7.39606C6.19818 6.04523 6.67484 4.72518 7.58499 3.72511C8.49514 2.72505 9.76457 2.12651 11.1152 2.06061C11.4132 2.02177 11.7141 2.01027 12.0142 2.02623L8.55568 5.75972C8.47462 5.84652 8.41156 5.9485 8.3701 6.0598C8.32865 6.1711 8.30965 6.2895 8.31419 6.40818C8.31872 6.52686 8.34671 6.64346 8.39654 6.75126C8.44637 6.85907 8.51704 6.95594 8.60449 7.0363L11.5906 9.78512C11.765 9.94341 11.9944 10.027 12.2297 10.018C12.4651 10.009 12.6874 9.90814 12.8492 9.737L16.3077 6.00351C16.3451 6.30162 16.3566 6.60241 16.3421 6.90251C16.3677 7.57223 16.2608 8.24041 16.0276 8.86875C15.7945 9.49709 15.4395 10.0732 14.9832 10.5641C14.5269 11.055 13.9781 11.4509 13.3684 11.7293C12.7588 12.0076 12.1001 12.1628 11.4303 12.1861C10.9866 12.2052 10.5424 12.1616 10.1109 12.0565C9.95761 12.026 9.79912 12.0345 9.64992 12.0811C9.50072 12.1277 9.36555 12.2109 9.2568 12.3232L5.02015 16.8967C4.93953 16.9837 4.87685 17.0858 4.83568 17.197C4.7945 17.3083 4.77563 17.4266 4.78016 17.5451C4.78469 17.6637 4.81254 17.7802 4.86209 17.8879C4.91165 17.9957 4.98193 18.0927 5.06896 18.1733C5.15599 18.2539 5.25803 18.3166 5.36929 18.3578C5.48054 18.399 5.59884 18.4178 5.71738 18.4133C5.83592 18.4088 5.9524 18.3809 6.06019 18.3314C6.16797 18.2818 6.26493 18.2115 6.34555 18.1245L6.45549 18.1743Z" fill="white"/>
<rect x="7" y="9" width="17" height="17" rx="8.5" fill="#4C4C4C"/>
<path d="M21.9799 15.5448C21.943 15.4289 21.8746 15.3267 21.7831 15.2509C21.6916 15.1751 21.581 15.1289 21.4648 15.1181L18.0508 14.6035L16.5295 11.3529C16.495 11.2787 16.4468 11.2123 16.3878 11.1575C16.3287 11.1028 16.2599 11.0608 16.1854 11.034C16.1108 11.0072 16.0319 10.996 15.9532 11.0012C15.8746 11.0064 15.7976 11.0279 15.7269 11.0643C15.6074 11.1264 15.5107 11.2278 15.4514 11.3529L13.93 14.591L10.516 15.1181C10.4058 15.1322 10.3016 15.1787 10.2156 15.2524C10.1296 15.326 10.0652 15.4237 10.0301 15.5341C9.995 15.6445 9.99049 15.7631 10.0171 15.8761C10.0438 15.989 10.1005 16.0918 10.1806 16.1723L12.6603 18.6825L12.0613 22.2468C12.0384 22.3645 12.0489 22.4866 12.0914 22.5982C12.134 22.7097 12.2068 22.8057 12.3009 22.8744C12.3952 22.9329 12.5027 22.9638 12.6123 22.9638C12.7219 22.9638 12.8295 22.9329 12.9238 22.8744L15.9904 21.2428L19.045 22.9246C19.129 22.9745 19.224 23.0005 19.3206 22.9999C19.445 23.0026 19.5669 22.963 19.6679 22.8869C19.7609 22.8172 19.8328 22.721 19.8753 22.6098C19.9177 22.4986 19.9289 22.377 19.9075 22.2594L19.3086 18.695L21.7882 16.1849C21.8747 16.1081 21.9386 16.0073 21.9725 15.894C22.0065 15.7806 22.009 15.6596 21.9799 15.5448ZM18.3023 18.0549C18.2311 18.1242 18.1774 18.2109 18.146 18.3073C18.1147 18.4037 18.1066 18.5067 18.1227 18.6072L18.5539 21.2428L16.3019 19.9877C16.2155 19.9383 16.1187 19.9124 16.0204 19.9124C15.922 19.9124 15.8252 19.9383 15.7388 19.9877L13.4868 21.2428L13.918 18.6072C13.9327 18.5059 13.9252 18.4024 13.8961 18.3046C13.8671 18.2068 13.8172 18.1171 13.7503 18.0424L11.9535 16.1598L14.4691 15.7833C14.5667 15.7685 14.6593 15.7287 14.7387 15.6674C14.8182 15.6061 14.8819 15.5252 14.9243 15.4319L15.9904 13.0473L17.1164 15.4444C17.1595 15.5361 17.2236 15.615 17.3031 15.6742C17.3826 15.7334 17.4749 15.7708 17.5716 15.7833L20.0992 16.1723L18.3023 18.0549Z" fill="white" stroke="white" stroke-width="0.5"/>
</svg>
