<?xml version="1.0" encoding="utf-8"?>
<!-- Generator: Adobe Illustrator 25.0.0, SVG Export Plug-In . SVG Version: 6.00 Build 0)  -->
<svg version="1.1" id="Layer_1" xmlns="http://www.w3.org/2000/svg" xmlns:xlink="http://www.w3.org/1999/xlink" x="0px" y="0px"
	 viewBox="0 0 20 20" style="enable-background:new 0 0 20 20;" xml:space="preserve">
<style type="text/css">
	.st0{fill:#CCCCCC;}
</style>
<path class="st0" d="M10,0C4.5,0,0,4.5,0,10s4.5,10,10,10s10-4.5,10-10S15.5,0,10,0z M5.5,12C4.1,12,3,10.9,3,9.5S4.1,7,5.5,7
	S8,8.1,8,9.5S6.9,12,5.5,12z M14.5,12c-1.4,0-2.5-1.1-2.5-2.5S13.1,7,14.5,7S17,8.1,17,9.5S15.9,12,14.5,12z"/>
</svg>
