<svg width="21" height="24" viewBox="0 0 21 24" fill="none" xmlns="http://www.w3.org/2000/svg">
<path d="M6.25 12C6.25 12.3183 6.35975 12.6235 6.5551 12.8485C6.75045 13.0736 7.0154 13.2 7.29167 13.2H13.5417C13.8179 13.2 14.0829 13.0736 14.2782 12.8485C14.4736 12.6235 14.5833 12.3183 14.5833 12C14.5833 11.6817 14.4736 11.3765 14.2782 11.1515C14.0829 10.9264 13.8179 10.8 13.5417 10.8H7.29167C7.0154 10.8 6.75045 10.9264 6.5551 11.1515C6.35975 11.3765 6.25 11.6817 6.25 12ZM8.33333 15.6H5.20833C4.37953 15.6 3.58468 15.2207 2.99863 14.5456C2.41257 13.8705 2.08333 12.9548 2.08333 12C2.08333 11.0452 2.41257 10.1295 2.99863 9.45442C3.58468 8.77928 4.37953 8.4 5.20833 8.4H8.33333C8.6096 8.4 8.87455 8.27357 9.0699 8.04853C9.26525 7.82348 9.375 7.51826 9.375 7.2C9.375 6.88174 9.26525 6.57652 9.0699 6.35147C8.87455 6.12643 8.6096 6 8.33333 6H5.20833C3.827 6 2.50224 6.63214 1.52549 7.75736C0.548734 8.88258 0 10.4087 0 12C0 13.5913 0.548734 15.1174 1.52549 16.2426C2.50224 17.3679 3.827 18 5.20833 18H8.33333C8.6096 18 8.87455 17.8736 9.0699 17.6485C9.26525 17.4235 9.375 17.1183 9.375 16.8C9.375 16.4817 9.26525 16.1765 9.0699 15.9515C8.87455 15.7264 8.6096 15.6 8.33333 15.6ZM15.625 6H12.5C12.2237 6 11.9588 6.12643 11.7634 6.35147C11.5681 6.57652 11.4583 6.88174 11.4583 7.2C11.4583 7.51826 11.5681 7.82348 11.7634 8.04853C11.9588 8.27357 12.2237 8.4 12.5 8.4H15.625C16.4538 8.4 17.2487 8.77928 17.8347 9.45442C18.4208 10.1295 18.75 11.0452 18.75 12C18.75 12.9548 18.4208 13.8705 17.8347 14.5456C17.2487 15.2207 16.4538 15.6 15.625 15.6H12.5C12.2237 15.6 11.9588 15.7264 11.7634 15.9515C11.5681 16.1765 11.4583 16.4817 11.4583 16.8C11.4583 17.1183 11.5681 17.4235 11.7634 17.6485C11.9588 17.8736 12.2237 18 12.5 18H15.625C17.0063 18 18.3311 17.3679 19.3078 16.2426C20.2846 15.1174 20.8333 13.5913 20.8333 12C20.8333 10.4087 20.2846 8.88258 19.3078 7.75736C18.3311 6.63214 17.0063 6 15.625 6Z" fill="white"/>
<path d="M9.06867 2.09381C7.46362 -0.153254 4.34087 -0.673712 2.09381 0.931333C-0.153254 2.53638 -0.673712 5.65913 0.931333 7.90619L9.06867 2.09381ZM10.9313 21.9062C12.5364 24.1533 15.6591 24.6737 17.9062 23.0687C20.1533 21.4636 20.6737 18.3409 19.0687 16.0938L10.9313 21.9062ZM0.931333 7.90619L10.9313 21.9062L19.0687 16.0938L9.06867 2.09381L0.931333 7.90619Z" fill="#4C4C4C"/>
<path d="M6.01717 4.27345C5.61591 3.71169 4.83522 3.58157 4.27345 3.98283C3.71169 4.38409 3.58157 5.16478 3.98283 5.72655L6.01717 4.27345ZM13.9828 19.7265C14.3841 20.2883 15.1648 20.4184 15.7265 20.0172C16.2883 19.6159 16.4184 18.8352 16.0172 18.2735L13.9828 19.7265ZM3.98283 5.72655L13.9828 19.7265L16.0172 18.2735L6.01717 4.27345L3.98283 5.72655Z" fill="white"/>
</svg>
