<?xml version="1.0" encoding="utf-8"?>
<!-- Generator: Adobe Illustrator 25.0.0, SVG Export Plug-In . SVG Version: 6.00 Build 0)  -->
<svg version="1.1" xmlns="http://www.w3.org/2000/svg" xmlns:xlink="http://www.w3.org/1999/xlink" x="0px" y="0px"
	 viewBox="0 0 16 16" style="enable-background:new 0 0 16 16;" xml:space="preserve">
<style type="text/css">
	.st0{fill:#FFFFFF;}
	.st1{fill:none;stroke:#FFFFFF;stroke-width:1.5;stroke-linecap:round;}
</style>
<g id="Layer_1">
	<path class="st0" d="M6.6,12.7H6v-2c0,0,0,0,0-0.1c0,0,0-0.1,0-0.1c0-0.6,0.1-1.3,0.4-1.8C6,8.8,5.6,8.9,5.3,9.3
		c-0.4,0.4-0.6,0.9-0.6,1.4v2H4c-0.2,0-0.3-0.1-0.5-0.2c-0.1-0.1-0.2-0.3-0.2-0.5V4c0-0.2,0.1-0.3,0.2-0.5C3.7,3.4,3.8,3.3,4,3.3
		h0.7v2c0,0.2,0.1,0.3,0.2,0.5C5,5.9,5.2,6,5.3,6h4c0.2,0,0.3-0.1,0.5-0.2C9.9,5.7,10,5.5,10,5.3V4.3l2,2c0.8,0.3,1.5,0.8,2,1.4v-1
		c0-0.1,0-0.2,0-0.3c0-0.1-0.1-0.2-0.1-0.2l-4-4C9.7,2.1,9.7,2.1,9.6,2.1C9.5,2,9.4,2,9.3,2H4C3.5,2,3,2.2,2.6,2.6C2.2,3,2,3.5,2,4
		v8c0,0.5,0.2,1,0.6,1.4C3,13.8,3.5,14,4,14h3.7C7.2,13.6,6.9,13.2,6.6,12.7z M6,3.3h2.7v1.3H6V3.3z"/>
</g>
<g id="Layer_2">
	<path class="st1" d="M8,11h6"/>
	<path class="st1" d="M11,8v6"/>
</g>
</svg>
