<svg width="24" height="26" viewBox="0 0 24 26" fill="none" xmlns="http://www.w3.org/2000/svg">
<path d="M6.45549 18.1743L10.3636 13.9555C10.7736 14.035 11.1922 14.0614 11.609 14.0339C12.5149 14.0016 13.4056 13.7909 14.23 13.4139C15.0543 13.0368 15.7962 12.5009 16.4131 11.8367C17.03 11.1725 17.5098 10.3931 17.825 9.54311C18.1402 8.69318 18.2846 7.78941 18.25 6.88357C18.2136 5.87668 17.9545 4.89037 17.4914 3.99556C17.4241 3.86489 17.3271 3.75188 17.208 3.66572C17.089 3.57955 16.9513 3.52263 16.8062 3.49958C16.6632 3.48713 16.5193 3.50589 16.3844 3.55458C16.2495 3.60327 16.1267 3.68071 16.0247 3.78155L12.2729 7.85036L10.5928 6.29403L14.3453 2.2432C14.4452 2.13821 14.5176 2.01022 14.5563 1.87055C14.5949 1.73089 14.5985 1.58386 14.5668 1.44247C14.536 1.30064 14.472 1.16813 14.38 1.05583C14.2881 0.943534 14.1709 0.854641 14.0379 0.796457C12.9645 0.346021 11.7946 0.174106 10.637 0.296663C9.47934 0.419219 8.37144 0.832266 7.41613 1.49748C6.46081 2.16269 5.68907 3.0585 5.17252 4.10173C4.65598 5.14495 4.41137 6.30178 4.46144 7.46481C4.48296 7.88699 4.54119 8.30649 4.63544 8.71859L0.726633 12.9194C0.56731 13.0969 0.483324 13.3293 0.492435 13.5676C0.501546 13.8059 0.603039 14.0313 0.775444 14.196C0.86224 14.2771 0.964243 14.3402 1.07554 14.3816C1.18683 14.4231 1.30524 14.4421 1.42392 14.4375C1.5426 14.433 1.65921 14.405 1.76702 14.3552C1.87482 14.3054 1.97168 14.2347 2.05203 14.1472L6.28868 9.57369C6.39892 9.46453 6.47628 9.32658 6.51189 9.17559C6.54751 9.02459 6.53996 8.86661 6.49012 8.7197C6.3683 8.2875 6.291 7.84398 6.25944 7.39606C6.19818 6.04523 6.67484 4.72518 7.58499 3.72511C8.49514 2.72505 9.76457 2.12651 11.1152 2.06061C11.4132 2.02177 11.7141 2.01027 12.0142 2.02623L8.55568 5.75972C8.47462 5.84652 8.41156 5.9485 8.3701 6.0598C8.32865 6.1711 8.30965 6.2895 8.31419 6.40818C8.31872 6.52686 8.34671 6.64346 8.39654 6.75126C8.44637 6.85907 8.51704 6.95594 8.60449 7.0363L11.5906 9.78512C11.765 9.94341 11.9944 10.027 12.2297 10.018C12.4651 10.009 12.6874 9.90814 12.8492 9.737L16.3077 6.00351C16.3451 6.30162 16.3566 6.60241 16.3421 6.90251C16.3677 7.57223 16.2608 8.24041 16.0276 8.86875C15.7945 9.49709 15.4395 10.0732 14.9832 10.5641C14.5269 11.055 13.9781 11.4509 13.3684 11.7293C12.7588 12.0076 12.1001 12.1628 11.4303 12.1861C10.9866 12.2052 10.5424 12.1616 10.1109 12.0565C9.95761 12.026 9.79912 12.0345 9.64992 12.0811C9.50072 12.1277 9.36555 12.2109 9.2568 12.3232L5.02015 16.8967C4.93953 16.9837 4.87685 17.0858 4.83568 17.197C4.7945 17.3083 4.77563 17.4266 4.78016 17.5451C4.78469 17.6637 4.81254 17.7802 4.86209 17.8879C4.91165 17.9957 4.98193 18.0927 5.06896 18.1733C5.15599 18.2539 5.25803 18.3166 5.36929 18.3578C5.48054 18.399 5.59884 18.4178 5.71738 18.4133C5.83592 18.4088 5.9524 18.3809 6.06019 18.3314C6.16797 18.2818 6.26493 18.2115 6.34555 18.1245L6.45549 18.1743Z" fill="white"/>
<rect x="7" y="9" width="17" height="17" rx="8.5" fill="#4C4C4C"/>
<path d="M19.0611 16.1904H17.7709V14.9001C17.7709 14.7291 17.7029 14.565 17.5819 14.444C17.461 14.323 17.2969 14.255 17.1258 14.255H13.9001C13.729 14.255 13.565 14.323 13.444 14.444C13.323 14.565 13.255 14.7291 13.255 14.9001V18.1258C13.255 18.2969 13.323 18.461 13.444 18.5819C13.565 18.7029 13.729 18.7709 13.9001 18.7709H15.1904V20.0611C15.1904 20.2322 15.2584 20.3963 15.3793 20.5173C15.5003 20.6383 15.6644 20.7063 15.8355 20.7063H19.0611C19.2322 20.7063 19.3963 20.6383 19.5173 20.5173C19.6383 20.3963 19.7063 20.2322 19.7063 20.0611V16.8355C19.7063 16.6644 19.6383 16.5003 19.5173 16.3794C19.3963 16.2584 19.2322 16.1904 19.0611 16.1904ZM15.1904 16.8355V17.4806H14.5453V15.5453H16.4806V16.1904H15.8355C15.6644 16.1904 15.5003 16.2584 15.3793 16.3794C15.2584 16.5003 15.1904 16.6644 15.1904 16.8355ZM18.416 19.416H16.4806V17.4806H18.416V19.416ZM22.2868 21.532V13.4293C22.5862 13.2582 22.8054 12.9751 22.8961 12.6424C22.9869 12.3097 22.9417 11.9546 22.7706 11.6552C22.5995 11.3558 22.3165 11.1366 21.9838 11.0458C21.6511 10.9551 21.2959 11.0002 20.9965 11.1713C20.7849 11.2886 20.6106 11.4629 20.4933 11.6745H12.4293C12.2582 11.3751 11.9751 11.1559 11.6424 11.0652C11.3097 10.9744 10.9546 11.0196 10.6552 11.1907C10.3557 11.3618 10.1366 11.6448 10.0458 11.9775C9.95508 12.3102 10.0002 12.6654 10.1713 12.9648C10.2886 13.1764 10.4629 13.3507 10.6745 13.468V21.5707C10.5263 21.6555 10.3961 21.7685 10.2916 21.9036C10.187 22.0386 10.1101 22.1928 10.0652 22.3576C10.0202 22.5223 10.0082 22.6943 10.0297 22.8637C10.0513 23.0331 10.106 23.1966 10.1907 23.3448C10.2754 23.4931 10.3885 23.6232 10.5235 23.7278C10.6585 23.8323 10.8128 23.9093 10.9775 23.9542C11.1423 23.9991 11.3142 24.0112 11.4836 23.9896C11.653 23.9681 11.8165 23.9134 11.9648 23.8287C12.1764 23.7114 12.3507 23.5371 12.468 23.3255H20.5707C20.6555 23.4737 20.7685 23.6038 20.9036 23.7084C21.0386 23.813 21.1928 23.8899 21.3576 23.9348C21.5223 23.9798 21.6943 23.9918 21.8637 23.9703C22.0331 23.9487 22.1966 23.894 22.3448 23.8093C22.4931 23.7246 22.6232 23.6115 22.7278 23.4765C22.8323 23.3415 22.9093 23.1872 22.9542 23.0225C22.9991 22.8577 23.0112 22.6858 22.9896 22.5164C22.9681 22.347 22.9134 22.1835 22.8287 22.0352C22.701 21.8182 22.5126 21.6433 22.2868 21.532ZM20.9965 21.532C20.8042 21.6442 20.6442 21.8042 20.532 21.9965H12.4293C12.3171 21.8042 12.1571 21.6442 11.9648 21.532V13.4293C12.1571 13.3171 12.3171 13.1571 12.4293 12.9648H20.532C20.6442 13.1571 20.8042 13.3171 20.9965 13.4293V21.532Z" fill="white"/>
</svg>
