<svg width="24" height="26" viewBox="0 0 24 26" fill="none" xmlns="http://www.w3.org/2000/svg">
<path d="M6.45549 18.1743L10.3636 13.9555C10.7736 14.035 11.1922 14.0614 11.609 14.0339C12.5149 14.0016 13.4056 13.7909 14.23 13.4139C15.0543 13.0368 15.7962 12.5009 16.4131 11.8367C17.03 11.1725 17.5098 10.3931 17.825 9.54311C18.1402 8.69318 18.2846 7.78941 18.25 6.88357C18.2136 5.87668 17.9545 4.89037 17.4914 3.99556C17.4241 3.86489 17.3271 3.75188 17.208 3.66572C17.089 3.57955 16.9513 3.52263 16.8062 3.49958C16.6632 3.48713 16.5193 3.50589 16.3844 3.55458C16.2495 3.60327 16.1267 3.68071 16.0247 3.78155L12.2729 7.85036L10.5928 6.29403L14.3453 2.2432C14.4452 2.13821 14.5176 2.01022 14.5563 1.87055C14.5949 1.73089 14.5985 1.58386 14.5668 1.44247C14.536 1.30064 14.472 1.16813 14.38 1.05583C14.2881 0.943534 14.1709 0.854641 14.0379 0.796457C12.9645 0.346021 11.7946 0.174106 10.637 0.296663C9.47934 0.419219 8.37144 0.832266 7.41613 1.49748C6.46081 2.16269 5.68907 3.0585 5.17252 4.10173C4.65598 5.14495 4.41137 6.30178 4.46144 7.46481C4.48296 7.88699 4.54119 8.30649 4.63544 8.71859L0.726633 12.9194C0.56731 13.0969 0.483324 13.3293 0.492435 13.5676C0.501546 13.8059 0.603039 14.0313 0.775444 14.196C0.86224 14.2771 0.964243 14.3402 1.07554 14.3816C1.18683 14.4231 1.30524 14.4421 1.42392 14.4375C1.5426 14.433 1.65921 14.405 1.76702 14.3552C1.87482 14.3054 1.97168 14.2347 2.05203 14.1472L6.28868 9.57369C6.39892 9.46453 6.47628 9.32658 6.51189 9.17559C6.54751 9.02459 6.53996 8.86661 6.49012 8.7197C6.3683 8.2875 6.291 7.84398 6.25944 7.39606C6.19818 6.04523 6.67484 4.72518 7.58499 3.72511C8.49514 2.72505 9.76457 2.12651 11.1152 2.06061C11.4132 2.02177 11.7141 2.01027 12.0142 2.02623L8.55568 5.75972C8.47462 5.84652 8.41156 5.9485 8.3701 6.0598C8.32865 6.1711 8.30965 6.2895 8.31419 6.40818C8.31872 6.52686 8.34671 6.64346 8.39654 6.75126C8.44637 6.85907 8.51704 6.95594 8.60449 7.0363L11.5906 9.78512C11.765 9.94341 11.9944 10.027 12.2297 10.018C12.4651 10.009 12.6874 9.90814 12.8492 9.737L16.3077 6.00351C16.3451 6.30162 16.3566 6.60241 16.3421 6.90251C16.3677 7.57223 16.2608 8.24041 16.0276 8.86875C15.7945 9.49709 15.4395 10.0732 14.9832 10.5641C14.5269 11.055 13.9781 11.4509 13.3684 11.7293C12.7588 12.0076 12.1001 12.1628 11.4303 12.1861C10.9866 12.2052 10.5424 12.1616 10.1109 12.0565C9.95761 12.026 9.79912 12.0345 9.64992 12.0811C9.50072 12.1277 9.36555 12.2109 9.2568 12.3232L5.02015 16.8967C4.93953 16.9837 4.87685 17.0858 4.83568 17.197C4.7945 17.3083 4.77563 17.4266 4.78016 17.5451C4.78469 17.6637 4.81254 17.7802 4.86209 17.8879C4.91165 17.9957 4.98193 18.0927 5.06896 18.1733C5.15599 18.2539 5.25803 18.3166 5.36929 18.3578C5.48054 18.399 5.59884 18.4178 5.71738 18.4133C5.83592 18.4088 5.9524 18.3809 6.06019 18.3314C6.16797 18.2818 6.26493 18.2115 6.34555 18.1245L6.45549 18.1743Z" fill="white"/>
<rect x="7" y="9" width="17" height="17" rx="8.5" fill="#4C4C4C"/>
<path d="M21.5 13H12.5C12.3674 13 12.2402 13.0527 12.1464 13.1465C12.0527 13.2402 12 13.3674 12 13.5V22.5C12 22.6326 12.0527 22.7598 12.1464 22.8535C12.2402 22.9473 12.3674 23 12.5 23H21.5C21.6326 23 21.7598 22.9473 21.8536 22.8535C21.9473 22.7598 22 22.6326 22 22.5V13.5C22 13.3674 21.9473 13.2402 21.8536 13.1465C21.7598 13.0527 21.6326 13 21.5 13ZM21 22H13V14H21V22Z" fill="white" stroke="white"/>
</svg>
